<svg
              width="217"
              height="50"
              viewBox="0 0 217 50"
              fill="none"
              xmlns="http://www.w3.org/2000/svg"
              className="relative flex-grow-0 flex-shrink-0 w-[216.59px] h-[50px]"
              preserveAspectRatio="xMidYMid meet"
            >
              <g clipPath="url(#clip0_781_8255)">
                <path d="M216.587 0H0V50H216.587V0Z" fill="white"></path>
                <path
                  d="M158.134 37.6842V16.6089C158.134 15.8831 158.395 15.1518 158.925 14.6549C159.392 14.2194 159.949 14.0017 160.606 14.0017H161.848C162.488 14.0017 163.006 14.5209 163.006 15.1629V32.347C163.006 32.8662 163.424 33.2793 163.942 33.2793H172.1C173.453 33.2793 174.55 34.3791 174.55 35.7357V37.6897H158.134V37.6842Z"
                  fill="#D62328"
                ></path>
                <path
                  d="M174.489 11.9194H178.131C179.189 11.9194 180.247 12.3102 180.971 13.0862C181.611 13.7785 181.934 14.5936 181.934 15.5427V17.7814H177.875C176.004 17.7814 174.489 16.2629 174.489 14.387V11.9138V11.9194Z"
                  fill="#D62328"
                ></path>
                <path
                  d="M178.337 19.3725H179.478C180.163 19.3725 180.848 19.6237 181.316 20.1262C181.728 20.5728 181.939 21.1031 181.939 21.7117V37.6842H178.342C177.674 37.6842 177.134 37.1427 177.134 36.4727V20.5784C177.134 19.9084 177.674 19.3669 178.342 19.3669"
                  fill="#D62328"
                ></path>
                <path
                  d="M184.251 37.6842V18.8198C184.251 17.1673 184.685 15.9279 185.554 15.1016C186.378 14.32 187.731 13.9292 189.608 13.9292C190.064 13.9292 190.432 13.9739 190.705 14.0018C191.222 14.0464 191.596 14.119 191.874 14.1637V17.8595H190.638C189.997 17.8595 189.541 17.9544 189.262 18.1331C189.034 18.3173 188.917 18.6858 188.917 19.2329V20.4723H191.751C191.751 20.4723 191.874 20.4723 191.874 20.5784V21.5051C191.874 22.1918 191.646 22.7557 191.183 23.1911C190.727 23.6266 190.198 23.8443 189.602 23.8443H188.917V37.6842H184.245H184.251Z"
                  fill="#D62328"
                ></path>
                <path
                  d="M197.381 26.3231H204.386C204.297 25.0837 203.974 24.1681 203.423 23.5708C202.827 22.9287 201.981 22.6049 200.884 22.6049C199.876 22.6049 199.051 22.9287 198.411 23.5708C197.771 24.2128 197.425 25.134 197.381 26.3231ZM205.622 31.6938H209.058C208.551 33.6199 207.594 35.0938 206.174 36.0987C204.754 37.1538 202.966 37.6842 200.817 37.6842C198.205 37.6842 196.167 36.8356 194.702 35.1384C193.238 33.4859 192.503 31.1244 192.503 28.0482C192.503 24.9721 193.216 22.8171 194.63 21.1646C196.095 19.4674 198.133 18.6188 200.744 18.6188C203.49 18.6188 205.622 19.445 207.131 21.0976C208.596 22.7947 209.331 25.1619 209.331 28.1878V28.947C209.331 29.1759 209.309 29.3378 209.264 29.4272H197.381C197.425 30.8508 197.771 31.906 198.411 32.5926C199.007 33.3296 199.898 33.6925 201.09 33.6925C201.869 33.6925 202.532 33.5306 203.083 33.2123C203.222 33.1677 203.345 33.0895 203.462 32.9723L203.84 32.5926C203.885 32.4531 204.058 32.2744 204.353 32.0399C204.648 31.811 205.077 31.6938 205.622 31.6938Z"
                  fill="#D62328"
                ></path>
                <path
                  d="M215.395 48.8053H1.19166V1.19473H215.395V48.8053ZM216.587 0H0V50H216.587V0Z"
                  fill="#D62328"
                ></path>
                <path
                  d="M151.903 0.340576H40.7451V49.2687H151.903V0.340576Z"
                  fill="#D62328"
                ></path>
                <path
                  d="M105.167 21.1534C105.378 20.8743 105.623 20.7403 105.879 20.6063C107.906 19.5902 108.903 17.8372 108.769 15.5259C108.686 14.0688 107.65 12.7568 106.252 12.6563C105.116 12.5726 103.942 12.6843 102.822 12.9076C101.731 13.1253 100.678 13.5943 99.6259 13.946V9.09448C98.774 9.16148 97.8774 9.23405 97.1424 9.28988C97.9721 13.5049 97.4821 17.6027 97.1201 21.7396H99.0969C99.2139 20.5728 99.2083 19.4283 99.4589 18.3453C99.9712 16.1177 101.068 14.3033 103.312 13.5049C103.981 13.2649 104.621 13.2258 105.222 13.7059C106.252 14.5154 106.787 16.2964 106.258 17.5246C105.378 19.5623 103.93 20.9413 101.753 21.3991C101.419 21.4717 101.09 21.5387 100.756 21.6112C100.979 21.7731 101.196 21.7955 101.413 21.7955C103.39 21.7955 105.367 21.7341 107.338 21.8234C108.229 21.868 108.636 21.4772 108.953 20.6789C107.667 20.8464 106.414 21.0027 105.167 21.159"
                  fill="white"
                ></path>
                <path
                  d="M121.505 12.9187H119.283C119.188 14.1637 119.188 15.3473 118.988 16.4806C118.548 18.898 117.145 20.517 114.867 21.2707C113.959 21.5721 113.274 21.293 112.712 20.517C111.821 19.2888 111.721 17.9545 112.345 16.5922C113.174 14.7611 114.772 13.9181 116.521 13.3039C116.755 13.2202 116.989 13.1141 117.223 13.0192C117.011 12.8517 116.833 12.8294 116.655 12.8294C114.806 12.8126 112.957 12.7959 111.108 12.7792C110.284 12.7736 110.028 13.0025 109.833 13.946C110.813 13.8455 111.788 13.7506 112.901 13.6389C112.745 13.8399 112.723 13.8901 112.695 13.9069C112.528 13.9962 112.361 14.0855 112.189 14.1693C110.841 14.8113 109.961 15.8441 109.727 17.3906C109.354 19.7856 110.312 22.1751 113.564 22.002C115.413 21.9015 117.195 21.7117 118.793 20.6454C118.804 20.6454 118.832 20.6454 118.91 20.6566C118.954 20.8687 118.96 21.1143 119.06 21.3153C119.138 21.4716 119.322 21.667 119.467 21.6726C120.129 21.7117 120.792 21.6894 121.488 21.6894C120.87 18.697 121.176 15.8386 121.521 12.9243"
                  fill="white"
                ></path>
                <path
                  d="M60.8804 15.671C60.5073 13.7226 59.0595 12.5781 57.1606 13.008C56.9769 13.0527 56.7764 13.0303 56.5927 13.0638C55.6015 13.2369 54.6103 13.4044 53.6302 13.6109C53.3518 13.6724 53.0956 13.8622 52.7504 14.0352C52.7838 13.5998 52.8061 13.2871 52.8395 12.9131C51.9875 12.9577 51.1856 12.9912 50.3894 13.0303C50.8905 17.318 50.4283 21.4939 50.3838 25.6811H52.678V22.2532C54.3875 22.136 56.0302 22.0187 57.6785 21.9182C58.4692 21.868 59.0706 21.4883 59.6052 20.9301C61.0252 19.4394 61.2479 17.6027 60.886 15.671M58.9648 17.1449C58.9983 19.1938 58.0349 20.6118 56.292 21.4604C55.2172 21.9908 53.3295 21.3376 52.7003 20.2992C52.6168 20.154 52.5444 19.9754 52.5444 19.8135C52.5444 17.8595 52.8339 15.9948 54.3263 14.5935C55.1003 13.8678 55.9801 13.2146 57.0994 13.7505C58.2855 14.3144 58.8646 15.364 58.9704 16.6927C58.9815 16.8434 58.9704 16.9997 58.9704 17.1449"
                  fill="white"
                ></path>
                <path
                  d="M86.562 12.7178C86.2446 12.8462 85.9996 12.9076 85.788 13.0304C85.1811 13.3933 84.5685 13.4212 83.9114 13.1867C82.5806 12.701 81.1996 12.5726 79.8075 12.6899C78.3485 12.8127 76.9508 13.1141 75.9095 14.3703C74.5174 16.0675 74.3949 17.9712 74.9183 19.9978C75.1411 20.8799 75.709 21.4382 76.5276 21.7787C78.2149 22.4766 81.9458 22.002 83.4326 20.8855C83.633 20.7403 83.8391 20.6119 84.1175 20.4277C84.1787 20.9525 84.1954 21.3433 84.2845 21.7173C84.3179 21.8625 84.5184 22.069 84.6298 22.0635C85.2256 22.03 85.8159 21.9351 86.4507 21.8569C85.8493 18.7584 86.317 15.7939 86.562 12.7234M84.0061 16.8993C83.6219 18.362 82.8312 19.5623 81.7397 20.5617C80.7819 21.4382 79.7239 21.6894 78.549 21.1032C77.3907 20.517 76.7949 19.5344 76.8116 18.189C76.8562 15.8274 78.7105 13.6836 80.9935 13.3654C82.8813 13.103 84.5073 15.0012 84.0061 16.8993Z"
                  fill="white"
                ></path>
                <path
                  d="M96.2184 13.382C95.9511 12.2431 95.3497 11.7016 94.0745 11.5676C93.5344 11.5118 92.9719 11.5118 92.4429 11.6067C91.5631 11.7574 90.6944 12.0142 89.7923 12.232C89.7533 12.0701 89.7144 11.8914 89.6643 11.6849C88.9236 11.7518 88.222 11.8188 87.4202 11.8914C88.2666 15.2635 87.8879 18.5238 87.3311 21.8512C87.6986 21.868 88.0104 21.9126 88.3167 21.8959C90.0819 21.8121 91.8471 21.7898 93.5956 21.6112C94.7093 21.5051 95.4388 20.5337 95.5223 19.3724C95.6058 18.1163 95.1715 17.4743 93.9687 17.0611C93.9242 17.0444 93.9019 16.9718 93.8685 16.916C94.3084 16.6648 94.7483 16.4582 95.1437 16.1846C95.9956 15.5817 96.4467 14.3646 96.2184 13.382ZM93.2504 19.713C93.0443 20.5113 92.1812 21.2818 91.3905 21.3655C90.6443 21.4493 89.9427 21.0361 89.7701 20.221C89.5863 19.3557 89.5752 18.4457 89.4805 17.4519C90.4049 17.4519 91.1622 17.357 91.8917 17.4743C93.0666 17.6641 93.5511 18.5518 93.2504 19.713ZM92.6156 16.179C91.7302 16.6982 90.7612 16.8099 89.7311 16.7541C89.4861 14.9508 90.3993 13.1811 91.9028 12.4274C92.6879 12.0366 93.423 12.338 93.7348 13.1922C94.158 14.3479 93.7237 15.537 92.6211 16.179"
                  fill="white"
                ></path>
                <path
                  d="M73.9493 21.1646C71.85 21.4215 70.7642 19.6294 69.0379 18.8254C69.4723 18.6189 69.7785 18.4905 70.0681 18.3341C71.154 17.7703 71.9057 16.9049 72.2343 15.6823C72.663 14.0912 71.928 12.6285 70.5804 12.5671C69.5001 12.5168 68.392 12.5726 67.3228 12.7625C66.3651 12.9299 65.4518 13.3375 64.5052 13.6445C64.4439 13.4324 64.3827 13.1868 64.2991 12.902C63.5084 12.9411 62.7455 12.9802 61.8936 13.0248C62.6119 14.5155 62.6898 15.9838 62.623 17.4632C62.5506 18.9203 62.3947 20.3775 62.2778 21.8346H64.4718C64.4384 21.1144 64.4105 20.4445 64.3771 19.7745C64.3604 19.4284 64.5052 19.2218 64.856 19.2776C65.4685 19.367 66.1535 19.3446 66.6769 19.6238C67.6904 20.1709 68.6092 20.9134 69.5781 21.5499C69.812 21.7062 70.0904 21.8792 70.3521 21.8737C71.3377 21.8737 72.3233 21.8123 73.309 21.7397C73.5317 21.7229 73.7544 21.5554 73.9716 21.4605C73.9605 21.36 73.9493 21.254 73.9438 21.1535M66.3038 18.6356C65.7135 18.7361 65.1121 18.7529 64.494 18.8087C64.3437 16.7709 65.1678 15.2915 66.482 14.0242C67.0444 13.4771 67.6904 13.2593 68.431 13.3152C70.0792 13.438 70.7864 14.8504 69.9289 16.3243C69.1048 17.72 67.8129 18.3676 66.3094 18.6356"
                  fill="white"
                ></path>
                <path
                  d="M63.1637 37.4218C63.1247 36.2494 63.0969 34.2731 63.0969 34.1559L63.0579 30.3372V30.2981C63.0412 29.7119 63.0746 29.3881 63.108 29.2262C63.1581 28.9303 63.2751 28.5786 63.3196 28.4781L63.7206 27.6072L63.4533 27.663C63.1414 27.73 62.4064 27.7747 61.9721 27.7747C61.6547 27.7914 61.1869 27.7188 60.7247 27.6407L60.6078 27.6239L60.3238 28.4725C60.0119 29.4216 59.7781 30.1027 59.5108 30.862C59.3716 31.2639 59.2268 31.6827 59.0542 32.1795C58.4305 33.9995 57.3892 37.0422 57.2611 37.3102L57.1887 37.4721L57.0718 37.2208C57.0161 37.1092 56.8156 36.6291 56.5372 35.9647C56.1474 35.0379 55.5906 33.6981 54.9669 32.2577C54.3098 30.6945 53.4968 28.4446 53.43 28.2436L53.2685 27.7579L52.94 27.7802C52.5279 27.8082 52.2272 27.8249 51.765 27.797C51.1636 27.797 50.8239 27.7635 50.2671 27.6965L50.0332 27.6686L50.2559 28.2157C50.2726 28.2548 50.2949 28.2771 50.3172 28.3106C50.3617 28.372 50.4341 28.4725 50.6068 28.8187C50.707 28.9973 50.7571 29.2039 50.7571 29.4216V35.948L50.6792 37.9969C50.6513 38.5998 50.6123 39.0409 50.4898 39.5042L50.2838 40.3417L50.4898 40.3082C50.6624 40.2802 51.0689 40.2077 51.4253 40.2077C51.8652 40.2412 52.4388 40.2747 52.4833 40.2747H52.6727L52.4499 39.5377C52.411 39.4317 52.3664 38.8678 52.3664 37.6507C52.3775 36.7407 52.3386 34.3903 52.3219 33.2626C52.3219 32.8886 52.3107 32.6262 52.3107 32.5759V30.7727L52.3664 30.8731C52.3664 30.8731 52.3942 30.9401 52.4332 31.0406C53.1961 32.9109 53.7864 34.368 54.1762 35.3618C54.527 36.2718 55.0003 37.4665 55.3511 38.3597C55.6073 39.0074 55.8244 39.5601 55.8411 39.6103L56.0583 40.2523L56.1697 40.2356C56.5595 40.1853 56.7878 40.1686 57.1497 40.1686C57.5952 40.1686 57.8792 40.1853 58.3525 40.2356L58.6143 40.2635L58.4862 40.029C58.4862 40.029 58.3136 39.7052 58.23 39.3982C58.1855 39.2083 58.1465 38.9627 58.23 38.7115L59.5498 35.0938C59.5776 35.0324 59.7948 34.4015 60.0454 33.6925L60.4574 32.5368C60.5298 32.3359 60.6078 32.1181 60.6802 31.9004C60.8417 31.437 61.0254 30.9234 61.1089 30.7336V31.6045C61.1145 31.9562 61.1256 32.2409 61.1368 32.5257C61.1479 32.8104 61.1535 33.0895 61.1535 33.4413C61.1646 33.9884 61.1646 34.3401 61.1646 34.9095C61.1813 35.6856 61.1925 36.1043 61.2036 36.3834C61.2147 36.8021 61.2203 36.9026 61.2036 37.4442V37.701C61.1925 38.4491 61.1869 38.985 60.9252 39.6717L60.708 40.3137L61.0198 40.2579C61.2537 40.2133 61.7437 40.1239 62.1614 40.1407C62.4509 40.1518 62.9298 40.1742 63.2417 40.1909C63.4199 40.2021 63.5479 40.2077 63.5647 40.2077H63.7818L63.5201 39.6382C63.3196 39.2586 63.2027 38.5384 63.1637 37.4274"
                  fill="white"
                ></path>
                <path
                  d="M83.5272 38.7841C83.3991 38.8343 83.2766 38.879 83.1318 38.9125C82.8088 38.9962 82.4079 39.0856 82.3745 39.0911H82.2742C82.3466 39.0074 82.4357 38.9069 82.5248 38.8064C82.8756 38.41 83.349 37.8741 83.5884 37.3716C83.9169 36.6793 84.1675 36.0708 84.1675 35.1273V34.7086C84.1675 33.7037 83.878 32.9723 83.2209 32.3191C82.7754 31.8948 82.2019 31.6604 81.8844 31.6604H81.4724C81.2162 31.6604 81.0436 31.7329 80.8543 31.8055C80.7763 31.839 80.6872 31.8725 80.5926 31.9004C80.4422 31.9451 80.264 32.0009 80.1025 32.0567C79.9466 32.107 79.7517 32.174 79.7127 32.1796H79.3786C79.0389 32.1796 78.844 32.2856 78.638 32.4029C78.5545 32.4475 78.4654 32.4978 78.354 32.5425C77.9809 32.7099 77.7526 32.8607 77.6023 32.9612C77.5744 32.9779 77.5466 32.9947 77.5243 33.0114L77.5132 32.5201C77.5132 32.4531 77.541 32.1126 77.5689 31.7162C77.6023 31.2807 77.6413 30.7448 77.6691 30.3093C77.7081 29.4886 77.786 28.9973 77.9252 28.2046L78.0088 27.6798L77.8083 27.7245C77.3238 27.8361 77.0176 27.8864 76.5053 27.8864C75.915 27.9031 75.5586 27.8473 75.0296 27.7245L74.6621 27.6351L75.1744 28.3218C75.3526 28.5675 75.464 28.8299 75.4862 29.0532C75.6143 30.6275 75.6533 32.3471 75.6533 32.481L75.6422 35.4679C75.6422 35.613 75.5642 37.126 75.4751 38.1755C75.4584 38.3486 75.4417 38.5049 75.4306 38.6501C75.4027 39.0018 75.3749 39.3033 75.2858 39.7108L75.1521 40.3026L75.347 40.2803C75.6477 40.2468 75.8092 40.23 76.0932 40.23C76.5387 40.23 76.806 40.23 77.2348 40.297L77.3962 40.325L77.3517 38.7897C77.3406 38.1811 77.5967 36.5677 78.0255 35.4232C78.5489 34.0722 79.8074 32.8607 80.0413 32.8607H80.2473C80.47 32.8607 80.9489 33.0449 81.2719 33.3855C81.7174 33.8712 81.9067 34.4462 81.9067 35.3115V35.546C81.9067 36.4839 81.1661 37.8015 80.6538 38.3542C80.1526 38.8678 79.3731 39.4317 78.9053 39.7667C78.7215 39.9007 78.5768 40.0011 78.5044 40.0626L78.1647 40.3473L79.1336 40.2635C79.4566 40.23 80.2083 40.1463 80.7875 40.1463C81.3109 40.1463 82.0682 40.2133 82.3188 40.2412C82.38 40.2468 82.4302 40.2524 82.4246 40.2468L83.6719 40.191L84.4849 38.5049L83.878 38.6668C83.7499 38.7059 83.6385 38.745 83.5272 38.7897"
                  fill="white"
                ></path>
                <path
                  d="M98.7624 38.5775C98.5285 38.6389 98.4227 38.6556 98.2055 38.6556H98.0496C97.9995 38.5719 97.9271 38.276 97.877 37.7121C97.8603 37.5391 97.8435 37.3716 97.8213 37.1985C97.7767 36.8133 97.7322 36.4113 97.7322 35.9368V33.7483C97.7322 33.6702 97.7823 31.6101 97.877 30.2702C97.9271 29.4216 97.9661 28.9303 98.0719 28.1096L98.1777 27.3671L97.7266 27.4899C97.4872 27.5569 97.3424 27.5849 97.1085 27.6016C96.8802 27.6351 96.7299 27.6519 96.5071 27.6519H95.5215L95.6329 28.065C95.7387 28.4279 95.7888 28.6344 95.8333 28.9638C95.9447 29.6728 95.9892 32.4364 95.9892 32.6485V34.4685C95.9892 35.8866 95.9725 36.6905 95.8723 37.9969L95.8556 38.1867C95.811 38.7394 95.7832 39.1414 95.6885 39.722L95.5939 40.3026L96.1229 40.2468C96.1841 40.23 96.4848 40.1072 96.6686 40.0123C96.8078 39.962 96.9693 39.8727 97.1029 39.8001C97.1809 39.7611 97.2366 39.722 97.2422 39.7164H97.3814C97.4259 39.7164 97.4538 39.7387 97.5094 39.7834C97.5596 39.8225 97.6152 39.8671 97.6932 39.8895C97.8547 39.9565 98.0106 40.0179 98.2222 40.0179H98.6621C98.7289 40.0179 98.9907 39.9565 99.1243 39.9118C99.2579 39.8783 99.3582 39.8113 99.4528 39.7499L99.5364 39.6941L99.8761 38.2593L99.3972 38.3877C99.1466 38.4714 98.9962 38.5161 98.7456 38.5663"
                  fill="white"
                ></path>
                <path
                  d="M120.218 31.7553C120.107 31.7776 120.029 31.7888 119.873 31.7999C119.628 31.8334 119.472 31.8502 119.233 31.8502H118.943L118.837 32.1349C118.837 32.1349 118.798 32.1907 118.759 32.2521C118.62 32.4755 118.292 32.9947 117.701 33.7204C117.378 34.1224 117.172 34.3736 116.805 34.7979L116.655 34.9654C116.649 34.9542 116.643 34.9152 116.638 34.8928C116.638 34.8593 116.627 34.8258 116.621 34.7923L116.488 34.3122C116.471 34.2676 116.309 33.7037 116.181 33.2403C116.126 33.0505 116.075 32.8216 116.031 32.6206C115.958 32.308 115.92 32.1237 115.869 32.0232L115.797 31.7329H112.545L112.183 33.0002L112.712 32.8048C112.751 32.7881 112.79 32.7714 112.823 32.7546C112.901 32.7155 112.935 32.6988 112.99 32.7155H113.046C113.174 32.7323 113.308 32.749 113.419 32.8607L113.698 33.1231C113.881 33.3129 114.121 33.8433 114.405 34.7086C114.75 35.7191 115.034 36.5956 115.045 36.7017V36.8468L114.8 37.0869C114.316 37.5559 114.032 37.8127 113.564 38.237L113.475 38.3207C113.013 38.745 112.244 39.2977 111.314 39.8783L110.752 40.3361L112.122 40.2635H113.503L113.737 39.9007C113.92 39.6215 114.076 39.4652 114.271 39.2642C114.327 39.2084 114.383 39.147 114.444 39.0856C114.548 38.9851 114.622 38.9125 114.667 38.8678C114.728 38.8008 114.85 38.6724 115.251 38.2649L115.402 38.103C115.402 38.103 115.429 38.0695 115.446 38.0527C115.463 38.036 115.485 38.0081 115.485 38.0304L115.546 38.2258C115.608 38.4379 115.647 38.5887 115.702 38.8232C115.702 38.8287 115.936 39.7052 116.003 39.7946L116.209 40.0458L116.66 40.2524L119.773 40.3138L120.168 39.1749L119.144 39.5154L118.888 39.5322C118.748 39.5322 118.643 39.4652 118.487 39.3591C118.42 39.3145 118.303 39.1972 118.114 38.8902L117.946 38.6668C117.946 38.6668 117.919 38.611 117.902 38.5719C117.802 38.3542 117.562 37.8517 117.44 37.4498C117.39 37.2767 117.317 37.0925 117.256 36.9306C117.178 36.7296 117.1 36.523 117.1 36.4337V36.2774L117.284 36.0094C117.317 35.9647 117.59 35.6521 117.885 35.3227C118.191 34.9766 118.559 34.5579 118.86 34.2061C119.261 33.7428 119.778 33.2291 120.196 32.816C120.502 32.509 120.747 32.2689 120.853 32.1349L121.232 31.6436L120.569 31.7106C120.413 31.7329 120.313 31.7497 120.23 31.7664"
                  fill="white"
                ></path>
                <path
                  d="M136.556 38.4658C136.556 38.4658 136.49 38.4938 136.428 38.5328C136.295 38.6054 136.066 38.7282 135.883 38.7841C135.576 38.8678 135.387 38.9236 135.264 38.9627C135.164 38.9906 135.103 39.013 135.047 39.0185C134.936 39.0465 134.858 39.052 134.808 39.052C134.735 39.052 134.713 39.0353 134.713 39.0465C134.713 39.0297 134.747 39.0018 134.769 38.9795C134.786 38.9627 134.802 38.9404 134.819 38.918L135.047 38.5887C135.136 38.4658 135.214 38.3653 135.287 38.276C135.532 37.9634 135.71 37.7345 135.999 37.0031C136.283 36.2774 136.462 35.3283 136.462 34.9989V34.5858C136.478 34.0275 136.283 33.2682 135.983 32.6988C135.504 31.7776 134.602 31.5878 134.385 31.5878H133.711C133.393 31.5878 133.059 31.7218 132.837 31.8055C132.759 31.8334 132.697 31.8613 132.647 31.8781C132.452 31.9395 132.224 32.0567 132.057 32.1405C131.973 32.1851 131.907 32.2186 131.89 32.2242L131.728 32.241C131.5 32.2745 131.199 32.3582 130.86 32.481C130.737 32.5257 130.643 32.5759 130.553 32.6206C130.481 32.6597 130.409 32.6932 130.314 32.7323L130.192 32.7825L130.069 32.5201C129.952 32.2521 129.852 32.0232 129.612 31.8502C129.434 31.7106 129.273 31.6213 129.033 31.6213H128.605C128.543 31.6213 127.741 31.8613 127.73 31.8669C127.552 31.9339 127.402 32.0232 127.268 32.107C127.19 32.1572 127.112 32.2019 127.012 32.2521L126.873 32.3582H126.856C126.722 32.3526 126.411 32.3359 125.959 32.5145C125.882 32.5424 125.82 32.5703 125.753 32.5927C125.625 32.6429 125.514 32.6876 125.358 32.7211V31.638H124.974C124.901 31.638 124.812 31.6715 124.662 31.7273C124.545 31.772 124.411 31.8222 124.3 31.8446L124.166 31.8725C123.921 31.9227 123.76 31.9562 123.498 31.9562H122.268L122.657 32.4587C122.741 32.5759 122.819 32.6485 122.891 32.7155C122.997 32.8104 123.086 32.8886 123.153 33.1175C123.298 33.6869 123.37 34.0777 123.353 34.7365V34.971C123.381 36.1769 123.292 37.0645 123.175 38.0918C123.103 38.7282 123.003 39.1246 122.769 39.722L122.552 40.2523L123.092 40.1965C123.409 40.163 123.582 40.1463 123.894 40.1463C123.988 40.1463 124.066 40.1463 124.144 40.1407C124.322 40.1351 124.462 40.1239 124.668 40.1798L125.236 40.3082L125.03 38.8622V37.5279C125.03 37.5279 125.135 35.7302 125.425 34.7979C125.709 33.8879 126.399 33.1063 126.928 33.0951C127.307 33.084 127.602 33.19 127.836 33.4245C128.231 33.8209 128.426 34.5802 128.393 35.5683V36.4281C128.393 37.0143 128.332 37.768 128.226 38.4882C128.17 38.8176 128.07 39.253 128.014 39.4819C127.998 39.5657 127.981 39.6215 127.981 39.6382L127.886 40.2189L128.493 40.1463C128.571 40.1407 128.632 40.1295 128.699 40.1239C128.788 40.1128 128.877 40.096 128.989 40.096C129.134 40.096 129.245 40.1128 129.356 40.1295C129.445 40.1407 129.534 40.1574 129.657 40.163L130.308 40.1854L130.169 39.6662C130.03 39.1804 130.008 38.8846 129.98 38.3319C129.969 37.8852 129.98 37.5335 130.08 37.0534L130.147 36.7798C130.208 36.4337 130.57 34.9989 130.96 34.2173C131.328 33.4915 132.018 32.8886 132.335 32.8718H132.447C132.976 32.8886 133.354 33.0728 133.677 33.458C134.062 33.9102 134.268 34.5299 134.251 35.2055V35.7749C134.251 36.2718 133.995 37.3604 133.538 38.036C132.759 39.1693 132.196 39.4428 131.823 39.6271C131.723 39.6773 131.634 39.7164 131.556 39.7722L130.687 40.4087L131.65 40.3696L131.946 40.2858C132.024 40.2691 132.118 40.2412 132.23 40.2133C132.653 40.096 133.293 39.9174 133.839 39.9565C134.101 39.9788 134.34 39.9844 134.568 39.9844C134.997 39.99 135.37 39.9955 135.754 40.1295L136.167 40.2803L136.211 40.1407C136.211 40.1407 136.562 38.9906 136.963 38.5998L137.058 38.5049L136.985 38.4044C136.902 38.2984 136.818 38.343 136.579 38.4826"
                  fill="white"
                ></path>
                <path
                  d="M141.824 28.5284C141.774 28.5172 141.723 28.506 141.673 28.4893C141.568 28.4614 141.44 28.4279 141.278 28.3944C141.055 28.3553 140.905 28.305 140.71 28.2436L140.487 28.1766L140.432 28.2269C140.231 28.3944 139.969 28.6512 139.719 28.9303L139.646 29.0141C139.346 29.3714 139.106 29.6561 138.817 30.1139L138.711 30.2758L138.895 30.326C139.095 30.3763 139.223 30.4098 139.424 30.4433C139.53 30.4656 139.613 30.4935 139.702 30.5158C139.791 30.5438 139.875 30.5661 139.981 30.594L140.064 30.6163L140.12 30.5493C140.393 30.2144 140.571 30.0413 140.877 29.8012C141.256 29.4998 141.484 29.3714 141.852 29.2039L142.826 28.7907L141.824 28.5395V28.5284Z"
                  fill="white"
                ></path>
                <path
                  d="M141.273 38.1309C141.222 37.5559 141.206 36.7463 141.206 36.6403V34.3346C141.206 33.7651 141.217 33.3966 141.256 32.8216C141.261 32.6988 141.273 32.5983 141.284 32.4978C141.295 32.3917 141.306 32.2856 141.312 32.1572L141.373 31.465L140.972 31.6492C140.922 31.6715 140.638 31.7441 140.348 31.8055C140.014 31.8725 139.602 31.9172 139.485 31.9172H138.377V32.3471L138.589 32.5536C138.639 32.6039 139.145 33.2012 139.251 33.6255C139.396 34.1447 139.39 35.2892 139.39 35.4232V35.9927C139.39 36.3444 139.385 37.5726 139.29 38.4324C139.262 38.6724 139.235 38.8622 139.207 39.0521C139.179 39.2475 139.145 39.4373 139.123 39.6773L139.028 40.3138L139.608 40.1854C139.78 40.1407 139.914 40.1351 140.081 40.1295C140.148 40.1295 140.215 40.1295 140.287 40.1184C140.476 40.1184 140.621 40.1295 140.794 40.1407L141.584 40.2021L141.456 39.588C141.384 39.1805 141.334 38.7115 141.289 38.1141"
                  fill="white"
                ></path>
                <path
                  d="M73.3592 31.705C72.8747 32.0568 72.3903 32.0847 71.8668 31.8558C70.8088 31.3868 69.7062 31.264 68.5981 31.3756C67.4343 31.4985 66.3206 31.7888 65.4965 33.0058C64.3883 34.6528 64.2881 36.5007 64.7057 38.4714C64.8839 39.3256 65.335 39.8727 65.9865 40.1965C67.3285 40.8777 70.3021 40.4087 71.4882 39.3256C71.6441 39.1861 71.8111 39.0576 72.0339 38.879C72.084 39.387 72.0951 39.7667 72.1675 40.1296C72.1954 40.2691 72.3513 40.4701 72.4404 40.4645C72.9137 40.431 73.3815 40.3417 73.8882 40.2635C73.4093 37.2544 73.7824 34.3736 73.9773 31.3924C73.7211 31.5152 73.5262 31.5766 73.3592 31.6994M71.9392 35.4511C71.6329 36.8748 71.0037 38.036 70.135 39.013C69.3721 39.8672 68.5257 40.1072 67.5958 39.5378C66.677 38.9683 66.1981 38.0137 66.2148 36.7073C66.2482 34.4127 67.7294 32.3303 69.5448 32.0233C71.0483 31.7664 72.3457 33.6144 71.9448 35.4567"
                  fill="white"
                ></path>
                <path
                  d="M94.1023 31.705C93.6179 32.0568 93.1334 32.0847 92.61 31.8558C91.552 31.3868 90.4494 31.264 89.3413 31.3756C88.1775 31.4985 87.0638 31.7888 86.2396 33.0058C85.1315 34.6528 85.0313 36.5007 85.4489 38.4714C85.6271 39.3256 86.0781 39.8727 86.7297 40.1965C88.0717 40.8777 91.0452 40.4087 92.2313 39.3256C92.3872 39.1861 92.5543 39.0576 92.777 38.879C92.8272 39.387 92.8383 39.7667 92.9107 40.1296C92.9385 40.2691 93.0944 40.4701 93.1835 40.4645C93.6569 40.431 94.1246 40.3417 94.6314 40.2635C94.1525 37.2544 94.5256 34.3736 94.7204 31.3924C94.4643 31.5152 94.2694 31.5766 94.1023 31.6994M92.6824 35.4511C92.3761 36.8748 91.7469 38.036 90.8782 39.013C90.1153 39.8672 89.2689 40.1072 88.3389 39.5378C87.4201 38.9683 86.9413 38.0137 86.958 36.7073C86.9914 34.4127 88.4726 32.3303 90.2879 32.0233C91.7914 31.7664 93.0889 33.6144 92.6879 35.4567"
                  fill="white"
                ></path>
                <path
                  d="M109.421 31.705C108.936 32.0568 108.452 32.0847 107.928 31.8558C106.87 31.3868 105.768 31.264 104.66 31.3756C103.496 31.4985 102.382 31.7888 101.558 33.0058C100.45 34.6528 100.35 36.5007 100.767 38.4714C100.945 39.3256 101.396 39.8727 102.048 40.1965C103.39 40.8777 106.364 40.4087 107.55 39.3256C107.706 39.1861 107.873 39.0576 108.095 38.879C108.146 39.387 108.157 39.7667 108.229 40.1296C108.257 40.2691 108.413 40.4701 108.502 40.4645C108.975 40.431 109.443 40.3417 109.95 40.2635C109.471 37.2544 109.844 34.3736 110.039 31.3924C109.783 31.5152 109.588 31.5766 109.421 31.6994M108.001 35.4511C107.694 36.8748 107.065 38.036 106.197 39.013C105.434 39.8672 104.587 40.1072 103.657 39.5378C102.738 38.9683 102.26 38.0137 102.276 36.7073C102.31 34.4127 103.791 32.3303 105.606 32.0233C107.11 31.7664 108.407 33.6144 108.006 35.4567"
                  fill="white"
                ></path>
                <path
                  d="M20.0963 3.27161L9.87258 13.5217C6.81547 16.5867 5.13379 20.6622 5.13379 25.0001C5.13379 29.3379 6.81547 33.4078 9.87258 36.4728L20.0963 46.7229L31.2612 35.5293C34.0677 32.7156 35.6157 28.975 35.6157 24.9945C35.6157 21.0139 34.0677 17.2734 31.2612 14.4596L20.0963 3.27161Z"
                  fill="#D72027"
                ></path>
                <path
                  d="M20.2252 31.6437C20.4089 31.8056 20.6038 31.9117 20.7987 32.0233C21.2776 32.3025 21.7955 32.4923 22.3245 32.6598C22.8201 32.8161 23.2767 33.0617 23.7055 33.3465C23.7946 33.4079 23.8391 33.5028 23.8113 33.6144C23.7835 33.7261 23.7278 33.8154 23.5886 33.8322C23.4828 33.8433 23.3881 33.8545 23.2934 33.7987C22.731 33.4525 22.1129 33.246 21.4948 33.0227C20.3199 32.5928 19.3398 31.8782 18.5212 30.9347C18.4377 30.8342 18.3597 30.7225 18.4099 30.583C18.4433 30.488 18.5157 30.4266 18.6215 30.4099C18.6939 30.3987 18.7607 30.4211 18.8219 30.4545C19.557 30.823 20.331 31.0575 21.1384 31.1859C21.957 31.3087 22.7811 31.3199 23.6108 31.2082C24.6187 31.0742 25.5654 30.7672 26.4675 30.2982C27.2916 29.8739 28.0155 29.3101 28.667 28.6457C29.2406 28.0595 29.7028 27.3951 30.0926 26.6805C30.4657 25.9939 30.7218 25.2569 30.8944 24.4976C31.0949 23.6211 31.2063 22.7335 31.1784 21.829C31.1394 20.7236 30.9445 19.6462 30.5715 18.6022C30.2095 17.6028 29.7195 16.6761 29.0902 15.8219C28.6448 15.219 28.1436 14.6663 27.5812 14.175C26.7348 13.438 25.7993 12.8518 24.7579 12.4219C24.1064 12.1484 23.4382 11.9474 22.7533 11.7911C22.0906 11.6403 21.4113 11.5566 20.7319 11.5008C19.9746 11.4394 19.2173 11.4617 18.4655 11.5399C17.4911 11.6459 16.5333 11.8469 15.6089 12.1763C15.3973 12.2489 15.1913 12.327 14.9797 12.4108C14.7903 12.4834 14.6511 12.4387 14.5899 12.2824C14.523 12.1261 14.5899 12.0032 14.7681 11.9139C15.6312 11.4729 16.55 11.2272 17.4966 11.0597C18.4767 10.8867 19.4623 10.8308 20.4591 10.8699C21.183 10.8978 21.9013 10.9872 22.6141 11.1323C23.5607 11.3277 24.4795 11.6013 25.3593 12.0032C25.8048 12.2042 26.2336 12.4443 26.6457 12.7067C27.5812 13.304 28.4109 14.0242 29.1292 14.8728C30.087 16.0061 30.7998 17.2846 31.2564 18.7027C31.635 19.875 31.8188 21.0809 31.791 22.3148C31.7631 23.5039 31.5626 24.6707 31.1561 25.7929C30.694 27.0825 29.9701 28.2102 29.0067 29.1817C28.5111 29.6841 27.9598 30.1196 27.364 30.488C26.7236 30.8788 26.0498 31.1971 25.3315 31.4315C24.3236 31.7609 23.2934 31.9117 22.2354 31.8838C21.6117 31.867 20.9936 31.8 20.3867 31.6437C20.3421 31.6325 20.2976 31.6046 20.2308 31.6325L20.2252 31.6437Z"
                  fill="white"
                ></path>
                <path
                  d="M12.524 26.1781C12.5407 27.3896 12.73 28.5787 13.1031 29.7344C13.4372 30.7728 13.9161 31.7386 14.5175 32.6431C15.1189 33.5419 15.8316 34.3458 16.6613 35.0437C17.6024 35.8364 18.6437 36.4561 19.7797 36.9195C20.1082 37.0535 20.4479 37.154 20.782 37.2768C21.1551 37.4164 21.3612 37.7067 21.4113 38.0919C21.4614 38.4827 21.2943 38.8065 20.9714 39.0298C20.7486 39.1806 20.4869 39.1527 20.2252 39.1192C19.763 39.0522 19.3398 38.8456 18.911 38.6781C18.1147 38.3711 17.3685 37.9579 16.6613 37.489C15.5142 36.7353 14.5063 35.8197 13.6377 34.7534C13.2757 34.3123 12.936 33.8545 12.6465 33.3632C12.5407 33.179 12.5741 33.0059 12.7356 32.9054C12.8803 32.8161 13.0474 32.8664 13.1532 33.0394C13.7546 33.9829 14.4562 34.8483 15.2692 35.6187C16.0098 36.311 16.8228 36.9139 17.7027 37.4164C18.5045 37.8742 19.3454 38.2371 20.2252 38.5218C20.4813 38.6055 20.7041 38.5218 20.782 38.3208C20.86 38.1198 20.7598 37.9188 20.5315 37.8407C20.1417 37.7123 19.763 37.5783 19.3843 37.422C17.9143 36.8134 16.6224 35.9314 15.4975 34.8092C14.6734 33.9829 13.9773 33.0506 13.4205 32.0234C12.9527 31.1636 12.5852 30.2592 12.3291 29.3157C12.1509 28.6513 12.0339 27.9758 11.9671 27.2891C11.9003 26.6024 11.8891 25.9213 11.9448 25.2402C12.0228 24.3079 12.1898 23.3923 12.4794 22.499C12.7356 21.6895 13.1086 20.9414 13.6154 20.2547C14.1555 19.5234 14.8015 18.9092 15.5588 18.4012C16.0655 18.0607 16.6001 17.7759 17.1681 17.5694C17.8586 17.3181 18.5713 17.1562 19.312 17.106C19.8911 17.0669 20.4646 17.1004 21.0326 17.173C21.2943 17.2065 21.5561 17.2791 21.8122 17.3405C21.9793 17.3795 22.0906 17.5526 22.0572 17.7033C22.0238 17.8708 21.8679 17.9713 21.673 17.9267C21.1774 17.815 20.6818 17.7313 20.1751 17.7089C19.4623 17.6754 18.7607 17.748 18.0702 17.9267C17.3296 18.1165 16.6335 18.4291 15.9931 18.8422C15.3917 19.2275 14.8572 19.702 14.395 20.2547C14.0052 20.7181 13.6822 21.2205 13.4205 21.7677C13.0697 22.5046 12.8581 23.2862 12.7133 24.0845C12.5908 24.7824 12.5128 25.4803 12.5128 26.1893L12.524 26.1781Z"
                  fill="white"
                ></path>
                <path
                  d="M26.9348 22.097C26.946 22.9232 26.7956 23.7104 26.4671 24.4529C26.0439 25.402 25.3534 26.1055 24.4234 26.5744C24.2619 26.6582 24.0615 26.6023 23.9947 26.4628C23.9167 26.312 23.9835 26.1166 24.145 26.0329C24.7353 25.7258 25.2364 25.3071 25.6095 24.7544C25.9492 24.2464 26.1385 23.6769 26.2443 23.0795C26.4448 21.9295 26.2944 20.8241 25.8211 19.7633C25.4814 19.0097 24.997 18.3565 24.3677 17.8205C23.7329 17.2734 23.009 16.8938 22.2016 16.6649C21.3663 16.4248 20.5143 16.3076 19.6457 16.3299C18.7157 16.3578 17.8136 16.5309 16.9338 16.8603C16.054 17.1896 15.2577 17.6419 14.5282 18.2225C13.9658 18.6747 13.4646 19.1939 13.0414 19.7801C12.4122 20.6454 11.9556 21.5945 11.6716 22.6273C11.4822 23.3252 11.3319 24.0286 11.2539 24.7432C11.1704 25.5416 11.1593 26.3399 11.2205 27.1439C11.2874 28.0371 11.46 28.908 11.6994 29.7678C11.8331 30.2423 12.0001 30.7001 12.1894 31.1524C12.2952 31.4036 12.1505 31.6269 11.8943 31.6046C11.7885 31.599 11.705 31.5543 11.6549 31.4482C11.382 30.8341 11.176 30.1977 11.0034 29.5445C10.8474 28.9695 10.7472 28.3888 10.6637 27.8026C10.5579 27.0378 10.5356 26.2674 10.5746 25.4969C10.608 24.7321 10.7194 23.9784 10.8809 23.2303C11.098 22.231 11.4154 21.2707 11.9222 20.3719C12.6628 19.0543 13.6707 17.988 14.9347 17.1673C15.9537 16.5085 17.0674 16.0675 18.2647 15.8553C19.2503 15.6767 20.2415 15.6655 21.2383 15.8274C21.9176 15.9391 22.5803 16.1066 23.2151 16.3801C23.8833 16.6649 24.4791 17.0668 25.0026 17.5637C25.604 18.1387 26.0606 18.8087 26.3947 19.5735C26.7511 20.3775 26.9515 21.2205 26.9348 22.097Z"
                  fill="white"
                ></path>
                <path
                  d="M30.5713 21.9518C30.5825 23.0293 30.4433 23.9337 30.1927 24.8214C29.8586 26.005 29.2906 27.0601 28.472 27.9757C28.3885 28.0706 28.3217 28.1767 28.1713 28.1823C28.0321 28.1823 27.9319 28.132 27.8706 28.0148C27.8094 27.8976 27.8316 27.7859 27.9152 27.6854C28.1212 27.4454 28.3217 27.2053 28.5054 26.9485C28.9954 26.2674 29.3463 25.5137 29.5857 24.7153C29.9532 23.5039 30.0479 22.2589 29.9031 21.0083C29.7917 20.0258 29.5077 19.0823 29.0901 18.1778C28.7449 17.4353 28.3161 16.7542 27.7982 16.1289C27.1077 15.3027 26.3003 14.616 25.3704 14.08C24.6075 13.639 23.7945 13.3096 22.9425 13.0863C22.252 12.9076 21.5504 12.7848 20.8376 12.729C20.0469 12.662 19.2617 12.6731 18.4766 12.768C17.7248 12.8574 16.9898 13.0193 16.2659 13.2426C15.0965 13.6055 14.0162 14.1414 13.0027 14.8281C12.3512 15.2747 11.7498 15.7828 11.1985 16.3522C10.909 16.6481 10.6305 16.9552 10.38 17.2846C10.2742 17.4241 10.0737 17.4521 9.94005 17.346C9.80641 17.2455 9.78413 17.0501 9.90107 16.9049C10.4635 16.1903 11.0983 15.5483 11.7999 14.9733C12.5795 14.3312 13.4315 13.7953 14.3336 13.3487C15.2691 12.8909 16.2492 12.5615 17.2682 12.3438C18.3708 12.1093 19.4845 12.0255 20.6037 12.0925C21.3443 12.1372 22.0738 12.2433 22.7977 12.4219C23.5216 12.6006 24.2288 12.8239 24.9082 13.1421C26.1834 13.745 27.2803 14.5825 28.1991 15.6544C28.8061 16.3634 29.2961 17.145 29.6859 17.9936C30.0924 18.8868 30.3597 19.8192 30.4934 20.7906C30.5546 21.2261 30.5546 21.6671 30.5713 21.9518Z"
                  fill="white"
                ></path>
                <path
                  d="M23.2649 20.4836C23.1146 20.1598 22.8807 19.9141 22.6134 19.702C21.9619 19.1772 21.1879 19.0153 20.386 18.9259C19.5062 18.831 18.6542 18.965 17.8245 19.2609C17.2231 19.4786 16.6663 19.7969 16.1595 20.1933C15.9702 20.3384 15.7809 20.4836 15.586 20.6231C15.4802 20.7013 15.3577 20.7404 15.2519 20.6343C15.1461 20.5338 15.1349 20.4054 15.2073 20.2658C15.2853 20.1039 15.4356 20.0146 15.5581 19.9029C16.3934 19.1772 17.3512 18.6859 18.4315 18.4402C19.2835 18.2504 20.141 18.2225 21.0041 18.3844C21.6167 18.4961 22.2069 18.6636 22.7304 19.0153C23.4654 19.5121 23.9666 20.1877 24.2283 21.0418C24.3842 21.5555 24.412 22.0691 24.3508 22.5939C24.3397 22.7055 24.3007 22.7949 24.1726 22.8004C24.0445 22.806 24.0167 22.7167 23.9888 22.605C23.7661 21.628 23.1925 20.9581 22.2236 20.6678C20.993 20.2993 19.6064 20.7906 18.9104 21.8625C18.3702 22.6944 18.2421 23.61 18.4482 24.5814C18.6486 25.5193 19.1387 26.273 19.9016 26.8424C20.4863 27.2779 21.1545 27.5012 21.8784 27.5905C22.8863 27.7133 23.8441 27.5459 24.7462 27.0881C25.3977 26.7587 25.9489 26.3009 26.4 25.7259C26.6951 25.3518 26.9234 24.9331 27.1128 24.4976C27.174 24.3525 27.2854 24.319 27.4246 24.3357C27.6362 24.3636 27.7476 24.5423 27.6696 24.7433C27.458 25.2792 27.1629 25.7649 26.8009 26.206C26.2552 26.8703 25.5926 27.3784 24.8185 27.7357C24.3007 27.9757 23.755 28.1265 23.1814 28.1935C22.3127 28.294 21.4663 28.2158 20.6477 27.9255C19.9183 27.6631 19.3002 27.2276 18.799 26.6303C18.3201 26.0608 17.9916 25.4132 17.8468 24.6874C17.6352 23.6379 17.7521 22.6218 18.3034 21.6895C18.799 20.852 19.5285 20.3105 20.464 20.0593C21.3271 19.8248 22.1624 19.9085 22.9642 20.2993C23.07 20.3496 23.1758 20.4166 23.2816 20.4724L23.2649 20.4836Z"
                  fill="white"
                ></path>
                <path
                  d="M16.2988 27.3449C16.2877 27.6854 16.3824 28.0093 16.4715 28.3275C16.7499 29.3101 17.2009 30.2033 17.8246 31.0072C18.5986 32.0122 19.5564 32.7882 20.7035 33.3409C21.188 33.5754 21.7114 33.7093 22.207 33.9103C22.9198 34.2062 23.5156 34.6584 24.0056 35.2502C24.5458 35.9034 24.8576 36.6571 25.008 37.4889C25.0247 37.595 25.0469 37.7011 24.9913 37.8016C24.9189 37.93 24.8075 37.997 24.6571 37.9691C24.4957 37.9411 24.4344 37.8239 24.4121 37.6732C24.362 37.3047 24.2674 36.953 24.117 36.6124C23.6548 35.5517 22.8808 34.8036 21.8005 34.4128C21.2102 34.2006 20.62 33.9996 20.0631 33.7038C19.6511 33.486 19.2668 33.2348 18.8993 32.9501C18.3759 32.5425 17.9026 32.0847 17.4849 31.5655C16.9169 30.8509 16.4603 30.0749 16.1318 29.2207C15.9592 28.7685 15.8144 28.3051 15.7253 27.825C15.5415 26.8983 15.5025 25.9715 15.6306 25.0336C15.6473 24.9164 15.6863 24.8047 15.8255 24.7991C15.9703 24.7935 16.026 24.894 16.0538 25.0168C16.271 26.1055 16.7499 27.0657 17.4738 27.8976C18.22 28.7518 19.1443 29.3603 20.2302 29.7064C21.2047 30.0191 22.1959 30.1307 23.2093 30.0302C23.9277 29.9577 24.6237 29.7902 25.292 29.5055C25.6595 29.3491 26.0159 29.1705 26.3555 28.9639C26.5059 28.8746 26.6674 28.9193 26.7676 29.0756C26.8456 29.1984 26.8066 29.3882 26.6618 29.4831C26.3889 29.6729 26.0938 29.8181 25.7931 29.9521C24.4845 30.5439 23.1091 30.7728 21.6836 30.6332C20.4641 30.5104 19.3225 30.1419 18.3035 29.4385C17.6743 29.0086 17.1341 28.4838 16.6775 27.8697C16.5494 27.6966 16.4269 27.5124 16.3044 27.3337L16.2988 27.3449Z"
                  fill="white"
                ></path>
                <path
                  d="M29.3686 22.1082C29.3519 23.3475 29.1291 24.5534 28.5723 25.6812C27.9542 26.9317 27.0242 27.892 25.8214 28.5898C25.0363 29.0421 24.1843 29.2933 23.2933 29.4273C23.0873 29.4552 22.9314 29.3435 22.9091 29.1593C22.8868 28.9695 22.9926 28.8522 23.2042 28.8187C24.5518 28.6289 25.7379 28.0986 26.7347 27.1495C27.5811 26.34 28.1491 25.3741 28.4609 24.252C28.7226 23.314 28.8117 22.365 28.7282 21.3991C28.6502 20.4947 28.4164 19.6238 28.0488 18.7975C27.6702 17.9545 27.1635 17.1952 26.5231 16.5253C25.9328 15.9112 25.2646 15.3976 24.5073 14.9956C23.7444 14.5881 22.937 14.3201 22.0961 14.1414C21.5003 14.013 20.8989 13.9349 20.2919 13.9237C20.1304 13.9237 20.0358 13.8288 19.9745 13.6948C19.9188 13.5664 19.9801 13.4659 20.0636 13.3766C20.1471 13.2928 20.2585 13.2984 20.3643 13.2984C20.871 13.3207 21.3722 13.3822 21.8678 13.4715C22.8701 13.6501 23.8335 13.9404 24.7356 14.415C25.6878 14.9174 26.5175 15.5762 27.2247 16.3913C27.9375 17.2064 28.472 18.1276 28.8451 19.1437C29.079 19.7857 29.2461 20.45 29.3073 21.1312C29.3352 21.4494 29.363 21.7676 29.3686 22.1082Z"
                  fill="white"
                ></path>
                <path
                  d="M14.0934 16.3578C14.2327 16.3578 14.3329 16.4248 14.3774 16.5532C14.4276 16.6928 14.3886 16.8156 14.2661 16.905C13.9431 17.1562 13.6146 17.4018 13.3027 17.6698C12.8238 18.0829 12.4285 18.5686 12.0498 19.0767C11.4039 19.942 10.925 20.8967 10.6076 21.9295C10.3626 22.7167 10.1899 23.5262 10.0841 24.3469C9.96719 25.2401 9.92821 26.1334 9.99503 27.0322C10.0563 27.8473 10.1788 28.6513 10.3681 29.4496C10.5407 30.1586 10.7579 30.8453 11.0308 31.5153C11.2479 32.0512 11.5041 32.5648 11.7825 33.0673C12.1834 33.7875 12.6456 34.463 13.1635 35.0995C13.5644 35.5907 13.9932 36.0597 14.461 36.4896C14.5389 36.5622 14.6169 36.6347 14.6948 36.7129C14.7951 36.8134 14.8062 36.9585 14.7283 37.0758C14.6503 37.1986 14.4944 37.2489 14.3663 37.2042C14.305 37.1819 14.2549 37.1484 14.2048 37.1037C13.4419 36.3947 12.7403 35.6242 12.1389 34.7757C11.5041 33.8824 10.9639 32.9333 10.5407 31.9228C10.2178 31.1524 9.95048 30.3708 9.76115 29.5613C9.4883 28.4224 9.34908 27.2723 9.35465 26.0999C9.36022 25.0168 9.48273 23.9505 9.72217 22.8953C10.0006 21.6448 10.4349 20.4612 11.1087 19.3726C11.6155 18.5519 12.2336 17.8205 12.9463 17.1729C13.2359 16.905 13.5422 16.6593 13.8707 16.436C13.9375 16.3913 14.0043 16.3523 14.0934 16.3578Z"
                  fill="white"
                ></path>
                <path
                  d="M17.3511 20.8576C17.0671 21.0139 16.8388 21.2093 16.6161 21.4159C16.1261 21.8793 15.7474 22.4264 15.4968 23.0573C15.2741 23.6267 15.1404 24.2185 15.0514 24.8215C14.9734 25.3462 14.9344 25.871 14.9511 26.4014C14.9845 27.3114 15.1293 28.2047 15.43 29.07C15.508 29.2933 15.5637 29.5278 15.3855 29.7399C15.2518 29.9018 15.0848 29.8795 15.0068 29.6897C14.6504 28.802 14.4444 27.8809 14.3664 26.9262C14.3052 26.1837 14.3274 25.4523 14.4388 24.721C14.5725 23.8221 14.7896 22.94 15.2574 22.1473C15.714 21.3768 16.321 20.7571 17.0894 20.2938C17.7187 19.9141 18.3925 19.6796 19.1164 19.568C19.1498 19.568 19.1776 19.5568 19.211 19.5568C19.3224 19.5568 19.4393 19.5568 19.4783 19.6796C19.5229 19.8136 19.3948 19.836 19.3113 19.8918C18.3423 20.4668 17.663 21.2763 17.34 22.3706C16.9279 23.7775 17.095 25.1229 17.8356 26.3791C18.5317 27.557 19.5618 28.3107 20.8871 28.6625C20.9595 28.6792 21.0319 28.6959 21.1043 28.7183C21.2881 28.7629 21.4106 28.9193 21.3772 29.0756C21.3438 29.2542 21.1711 29.3659 20.9762 29.3212C20.5697 29.2319 20.1744 29.1091 19.7957 28.936C19.1665 28.6457 18.5985 28.2549 18.1196 27.758C17.4514 27.0713 16.9836 26.2618 16.7219 25.3351C16.527 24.6372 16.4602 23.9282 16.5381 23.208C16.6272 22.4264 16.8611 21.6895 17.2788 21.0139C17.301 20.9805 17.3344 20.9525 17.3344 20.8744L17.3511 20.8576Z"
                  fill="white"
                ></path>
                <path
                  d="M21.3273 24.6819C21.4609 24.8382 21.628 24.9387 21.8229 24.9833C22.8419 25.2234 23.6994 24.9554 24.3788 24.1571C24.6962 23.783 24.8354 23.3197 24.9189 22.8395C24.9635 22.5939 24.9858 22.3538 24.9858 22.1082C24.9858 21.896 25.1138 21.762 25.3032 21.762C25.4814 21.762 25.5927 21.8904 25.5927 22.1082C25.5927 22.8842 25.4535 23.6323 25.0303 24.2967C24.7018 24.8103 24.2452 25.1955 23.6827 25.4356C23.2206 25.6365 22.7305 25.7147 22.2294 25.67C21.6558 25.6198 21.1379 25.4579 20.7426 24.9945C20.2637 24.4362 20.1746 23.6323 20.4642 23.0517C20.57 22.8395 20.7481 22.6944 20.9653 22.6051C21.0656 22.566 21.1546 22.5827 21.2215 22.6665C21.2939 22.7502 21.2716 22.8339 21.2048 22.9121C20.9208 23.2415 21.0154 23.6323 21.227 23.8947C21.4553 24.1738 21.9008 24.2297 22.2516 24.0622C22.7918 23.7998 22.931 23.1578 22.7305 22.6441C22.5301 22.1193 22.1291 21.8458 21.5779 21.7955C20.9375 21.7341 20.4029 21.9463 19.9908 22.4432C19.7291 22.7614 19.5899 23.141 19.5621 23.543C19.4841 24.6205 19.9184 25.4523 20.8261 26.0218C21.227 26.273 21.6892 26.3679 22.157 26.4126C22.3686 26.4293 22.4688 26.5186 22.4799 26.6917C22.4911 26.8927 22.3686 27.0378 22.1625 27.0211C21.6335 26.982 21.1157 26.8759 20.6479 26.6247C19.924 26.2395 19.4061 25.6589 19.1333 24.8829C18.8214 23.9952 18.8604 23.1187 19.3393 22.2924C19.9017 21.321 21.2215 20.9079 22.2628 21.3322C23.2595 21.7397 23.6438 22.9121 23.2818 23.8165C23.0034 24.52 22.1681 24.9219 21.4386 24.7154C21.3997 24.7042 21.3551 24.693 21.3161 24.6875L21.3273 24.6819Z"
                  fill="white"
                ></path>
                <path
                  d="M13.1304 26.2618C13.1193 25.1229 13.2808 24.1236 13.5536 23.141C13.6761 22.7 13.8488 22.2757 14.0437 21.857C14.1383 21.6616 14.3165 21.5834 14.4836 21.6727C14.6451 21.7565 14.7007 21.9407 14.6005 22.1305C14.2051 22.8786 14.0158 23.6937 13.8766 24.52C13.704 25.5416 13.6984 26.5633 13.8432 27.585C13.9434 28.3107 14.1272 29.0253 14.3833 29.7176C14.6395 30.4043 14.9458 31.0631 15.3411 31.6828C15.7309 32.2969 16.1708 32.8663 16.6831 33.3911C17.1732 33.8936 17.6966 34.3514 18.2757 34.7422C18.9272 35.1832 19.6177 35.5517 20.3472 35.8308C20.6479 35.9481 20.9597 36.043 21.2604 36.1602C21.9565 36.4338 22.363 36.9642 22.5746 37.6676C22.6414 37.8965 22.6748 38.1366 22.6748 38.3766C22.6748 38.5218 22.608 38.6334 22.4688 38.6893C22.3574 38.7339 22.2516 38.7116 22.157 38.6334C22.0623 38.5553 22.0679 38.4436 22.0623 38.3375C22.0456 37.9244 21.9398 37.5392 21.6725 37.2098C21.4832 36.9753 21.2549 36.7967 20.9709 36.7018C20.1412 36.4282 19.3393 36.0876 18.582 35.6466C17.9249 35.2614 17.3124 34.8092 16.7444 34.2956C16.143 33.7484 15.5973 33.1455 15.1407 32.4755C14.7787 31.9508 14.4613 31.3981 14.1884 30.8119C13.9824 30.3652 13.7986 29.913 13.6483 29.4441C13.4311 28.7853 13.2975 28.1042 13.2084 27.4175C13.1527 26.9932 13.1304 26.5633 13.136 26.2563L13.1304 26.2618Z"
                  fill="white"
                ></path>
                <path
                  d="M19.3621 14.5267C20.2809 14.4821 21.1885 14.5546 22.0906 14.7556C22.9092 14.9399 23.6999 15.2078 24.4238 15.6321C25.1589 16.062 25.8104 16.598 26.3617 17.2512C26.8517 17.8318 27.2526 18.4738 27.5477 19.1717C27.8206 19.8081 28.0044 20.4669 28.0823 21.1536C28.0823 21.2038 28.099 21.2485 28.1102 21.2931C28.1324 21.4718 28.0155 21.6337 27.854 21.656C27.6814 21.6839 27.5366 21.5723 27.5088 21.3825C27.4364 20.88 27.3473 20.3831 27.1802 19.903C26.9464 19.2163 26.6122 18.5799 26.1835 17.9993C25.7101 17.3628 25.1422 16.8213 24.4795 16.3802C23.8781 15.9783 23.221 15.688 22.5305 15.487C21.3779 15.1576 20.2029 15.0515 19.0057 15.152C18.0033 15.2357 17.0511 15.4926 16.1268 15.8666C15.9541 15.9336 15.7704 15.8834 15.7091 15.7549C15.6256 15.5819 15.6924 15.3976 15.8873 15.3139C16.5388 15.0236 17.2238 14.8282 17.9254 14.6886C18.3987 14.5937 18.8832 14.5379 19.3676 14.5211L19.3621 14.5267Z"
                  fill="white"
                ></path>
                <path
                  d="M26.9678 36.7967C26.8175 36.7967 26.6949 36.7018 26.6448 36.5343C26.5613 36.2272 26.4555 35.9258 26.3274 35.6299C25.9877 34.8427 25.5089 34.1448 24.8908 33.553C24.6235 33.2962 24.3395 33.0562 24.0276 32.8496C23.933 32.7882 23.894 32.6821 23.9163 32.5705C23.9441 32.4532 24.0165 32.3751 24.139 32.3527C24.6457 32.2634 25.1469 32.1294 25.6369 31.9675C26.2996 31.7498 26.9288 31.4427 27.5247 31.091C28.2207 30.6779 28.85 30.1866 29.4235 29.6115C30.1196 28.9193 30.6931 28.1321 31.1553 27.2668C31.1664 27.2444 31.1832 27.2221 31.1943 27.1942C31.2945 27.0155 31.4393 26.9541 31.5674 27.0211C31.7344 27.116 31.8124 27.3226 31.7233 27.4901C31.5228 27.8753 31.3057 28.2438 31.0606 28.6011C30.6541 29.1873 30.2031 29.7288 29.6852 30.2145C29.0059 30.8509 28.2653 31.3981 27.4411 31.8391C26.8731 32.1462 26.2829 32.3974 25.6703 32.604C25.4866 32.6654 25.2917 32.7156 25.1024 32.7659C25.0689 32.777 25.0188 32.7659 25.0133 32.8161C25.0133 32.8496 25.0467 32.8664 25.0689 32.8887C26.0935 33.7764 26.784 34.8818 27.1738 36.1826C27.2072 36.2886 27.2518 36.3947 27.2518 36.5064C27.2518 36.6739 27.1293 36.8023 26.9622 36.8023L26.9678 36.7967Z"
                  fill="white"
                ></path>
                <path
                  d="M18.1087 13.4269C18.3314 13.4269 18.4595 13.5441 18.4762 13.706C18.4929 13.8623 18.3871 13.9963 18.2089 14.0298C17.9528 14.0801 17.6966 14.1192 17.4405 14.1806C16.5328 14.3871 15.6697 14.7109 14.8455 15.1408C13.8265 15.6656 12.9077 16.3411 12.1058 17.1562C11.1648 18.1109 10.413 19.2107 9.88401 20.4501C9.76707 20.7292 9.66127 21.014 9.5499 21.2987C9.48308 21.4718 9.32716 21.5555 9.17681 21.5053C9.00419 21.4494 8.92066 21.2764 8.98191 21.0977C9.22693 20.3887 9.52763 19.7076 9.90072 19.06C10.2348 18.4849 10.6135 17.9322 11.0423 17.4242C11.5379 16.838 12.0836 16.302 12.6905 15.8219C13.3588 15.2916 14.0715 14.8449 14.8344 14.4709C15.6418 14.0689 16.4938 13.7786 17.3681 13.5776C17.6298 13.5162 17.9026 13.4771 18.1142 13.4325L18.1087 13.4269Z"
                  fill="white"
                ></path>
                <path
                  d="M23.8279 37.9523C23.8279 38.1924 23.7332 38.3264 23.5439 38.3375C23.3713 38.3487 23.2321 38.2091 23.2209 38.0137C23.1486 36.8581 22.3912 35.8699 21.2831 35.5182C20.381 35.2335 19.5235 34.8483 18.7327 34.3235C17.981 33.821 17.3016 33.2348 16.7169 32.537C16.4552 32.2299 16.2213 31.9117 15.993 31.5823C15.8761 31.4092 15.8984 31.2417 16.0543 31.1357C16.2158 31.024 16.394 31.0687 16.5053 31.2361C17.168 32.2355 17.9921 33.0673 18.9833 33.7428C19.6181 34.1727 20.2919 34.5133 21.0102 34.7757C21.4056 34.9208 21.8177 35.0157 22.1741 35.239C23.0817 35.8029 23.6274 36.6069 23.7945 37.6732C23.8112 37.7681 23.839 37.863 23.8279 37.9411V37.9523Z"
                  fill="white"
                ></path>
                <path
                  d="M31.6067 29.8404C31.6067 29.8739 31.5733 29.9353 31.5287 29.9856C31.2559 30.3373 30.9496 30.6667 30.6322 30.9793C30.2869 31.3199 29.9194 31.6325 29.5352 31.9284C28.8336 32.47 28.0707 32.911 27.2632 33.2795C27.1463 33.3353 27.1407 33.3688 27.2076 33.4693C27.6642 34.1113 28.0094 34.8148 28.2433 35.5629C28.3101 35.7694 28.2433 35.9257 28.0595 35.9872C27.9036 36.043 27.7421 35.9481 27.6809 35.7638C27.447 35.0492 27.1073 34.3905 26.6841 33.7708C26.5895 33.6312 26.4781 33.4972 26.3723 33.3632C26.2331 33.1846 26.2665 33.0227 26.4725 32.9445C27.1185 32.6877 27.7477 32.3806 28.3324 32.0066C28.9839 31.5935 29.602 31.1245 30.1533 30.583C30.4707 30.2703 30.777 29.9409 31.061 29.5948C31.1501 29.4831 31.2726 29.4496 31.4062 29.5055C31.5287 29.5557 31.6011 29.6506 31.6011 29.8349L31.6067 29.8404Z"
                  fill="white"
                ></path>
                <path
                  d="M30.8044 32.3081C30.7932 32.4253 30.7543 32.509 30.6707 32.576C30.164 32.9892 29.635 33.3744 29.067 33.7038C28.8164 33.8489 28.8331 33.7875 28.9556 34.0611C29.0447 34.2565 29.1283 34.4519 29.2062 34.6473C29.2675 34.8092 29.1895 34.9599 29.0225 35.0325C28.8888 35.0883 28.7162 35.0213 28.6494 34.8762C28.499 34.5356 28.3431 34.1951 28.1705 33.8657C28.0814 33.6982 28.1315 33.5363 28.2986 33.4414C28.7273 33.1957 29.1505 32.9389 29.557 32.6542C29.8076 32.4756 30.0526 32.2913 30.2921 32.0959C30.487 31.9396 30.7431 32.0233 30.7932 32.2578C30.7932 32.2802 30.7988 32.3025 30.7988 32.3137L30.8044 32.3081Z"
                  fill="white"
                ></path>
                <path
                  d="M24.9909 34.7533C25.0967 34.7645 25.1914 34.798 25.2471 34.8929C25.6703 35.5405 25.9877 36.2328 26.1324 36.9976C26.1492 37.0814 26.1881 37.1595 26.1547 37.2489C26.099 37.3828 26.0044 37.4666 25.854 37.4666C25.7148 37.4666 25.5979 37.3717 25.5645 37.2154C25.4976 36.9251 25.4308 36.6347 25.325 36.3556C25.1747 35.9536 24.9742 35.5796 24.7403 35.2223C24.6735 35.1218 24.6679 35.0269 24.7292 34.9208C24.7904 34.8147 24.8795 34.7589 24.9965 34.7477L24.9909 34.7533Z"
                  fill="white"
                ></path>
                <path
                  d="M24.7738 20.3106C24.6402 20.3106 24.5622 20.238 24.501 20.1263C24.2559 19.6574 23.9441 19.2442 23.5432 18.8981C23.4262 18.7976 23.3037 18.7083 23.1812 18.6134C22.9919 18.4738 22.9474 18.3231 23.0532 18.1612C23.159 17.9992 23.3204 17.9546 23.4764 18.0662C24.1334 18.524 24.6569 19.1047 25.0188 19.8248C25.1469 20.0817 25.0188 20.3106 24.7738 20.3106Z"
                  fill="white"
                ></path>
                <path
                  d="M24.7961 24.6763C24.6792 24.4865 24.5622 24.2967 24.4453 24.1069C24.3339 24.2297 24.2114 24.3525 24.0889 24.453C24.2727 24.7433 24.6458 25.3519 24.8351 25.6422C24.9687 25.5473 25.0913 25.4468 25.2082 25.3351C25.069 25.1118 24.9353 24.8941 24.7961 24.6763ZM17.4903 25.899L17.1005 26.5298C17.1729 26.6583 17.2508 26.7867 17.3343 26.9095C17.4568 26.7085 17.5794 26.5075 17.7074 26.3065C17.6295 26.1725 17.5571 26.0386 17.4903 25.899ZM20.642 26.6136C19.868 25.3686 19.094 24.1236 18.3255 22.8787C18.2587 23.1746 18.2364 23.476 18.2531 23.7887C18.4202 24.0231 18.6095 24.2576 18.3478 24.5144C18.6318 25.9604 19.7733 27.1216 21.1877 27.4901C21.0095 27.1998 20.8258 26.9095 20.6476 26.6192M17.8968 25.257C17.7019 25.5752 17.3065 26.2172 17.1116 26.5354C17.0169 26.6471 16.8777 27.0826 16.6661 27.01C16.7608 27.1663 16.861 27.3226 16.9668 27.4678C17.3956 26.9318 17.7019 26.2786 18.0861 25.7036C18.0137 25.5584 17.9524 25.4077 17.8968 25.257ZM31.6342 29.0756C29.9303 26.34 28.076 23.342 26.3664 20.5953C23.7381 16.7487 23.5376 13.6 20.3413 19.5234C18.3534 16.3802 17.8522 14.3704 15.4745 18.7753C13.8095 21.455 11.3426 25.4244 9.7055 28.0595C8.88136 29.0421 8.32451 30.7784 10.1788 30.8566C12.5065 30.8566 16.087 30.8566 18.3701 30.8566C19.5506 30.7784 19.8123 29.271 20.4583 28.495C21.8337 31.493 22.8527 30.8286 25.7094 30.851C26.7729 30.8566 28.2375 30.8342 29.2899 30.8342C30.4481 30.985 32.4361 30.717 31.6287 29.07M22.5019 23.4425L22.9307 23.1411L23.042 23.5877L22.9251 23.3588L23.4485 23.4314C24.217 24.654 24.3339 25.6422 25.0968 26.8592C25.0411 26.8592 24.8518 26.4964 24.8017 26.4852C24.2671 26.2898 24.2059 25.4747 23.8495 25.056C23.6824 24.7824 23.2035 24.4642 23.0309 24.1906C22.914 23.9562 22.2847 23.7328 22.5075 23.4481M15.4466 26.7197C15.068 26.6694 15.4745 26.5968 15.5357 26.4573C16.0202 25.6924 16.6884 24.788 17.1729 24.0287C17.997 22.4488 17.4457 23.1801 18.1529 24.0678C18.2309 24.3302 17.9859 25.0113 17.8912 25.257C17.6963 25.5752 17.3009 26.2172 17.106 26.5354C17.0336 26.608 16.8722 27.0379 16.7274 27.01L15.4466 26.7197ZM17.8912 25.257C17.6963 25.5752 17.3009 26.2172 17.106 26.5354C17.0114 26.6471 16.8722 27.0826 16.6606 27.01C16.7552 27.1663 16.8554 27.3226 16.9612 27.4678C17.39 26.9318 17.6963 26.2786 18.0805 25.7036C18.0081 25.5584 17.9469 25.4077 17.8912 25.257ZM20.642 26.6192C19.868 25.3742 19.094 24.1292 18.3255 22.8842C18.2587 23.1801 18.2364 23.4816 18.2531 23.7943C18.4202 24.0287 18.6095 24.2632 18.3478 24.52C18.6318 25.966 19.7733 27.1272 21.1877 27.4957C21.0095 27.2054 20.8258 26.9151 20.6476 26.6248M17.8968 25.2625C17.7019 25.5808 17.1561 25.7985 16.9612 26.1167C16.8666 26.2284 16.8109 27.211 16.5993 27.144C16.694 27.3003 16.8554 27.3282 16.9668 27.4789C17.3956 26.943 17.7019 26.2898 18.0861 25.7148C18.0137 25.5696 17.9524 25.4189 17.8968 25.2681M20.6476 26.6303C19.8736 25.3854 19.0996 24.1404 18.3311 22.8954C18.2643 23.1913 18.242 23.4928 18.2587 23.8054C18.4258 24.0399 18.6151 24.2744 18.3534 24.5312C18.6374 25.9771 19.7789 27.1384 21.1933 27.5068C21.0151 27.2165 20.8314 26.9262 20.6532 26.6359"
                  fill="#D72027"
                ></path>
                <path
                  d="M26.305 27.6687C25.6201 27.3449 24.551 27.8641 23.905 27.451C21.828 24.1013 19.7509 20.7516 17.6683 17.4019C15.1179 21.5052 12.5843 25.5863 10.0283 29.6953C12.768 29.712 15.6247 29.6953 18.3644 29.7065C19.8456 27.6687 19.7621 27.451 18.1806 25.5305C17.2061 27.758 16.382 27.5961 14.1713 27.4789C15.3407 25.5919 16.4989 23.7272 17.6683 21.8402C19.272 24.4139 20.9593 27.1328 22.5574 29.712C24.2001 29.7065 25.8484 29.712 27.4911 29.7065C27.1125 29.0142 26.6948 28.361 26.3106 27.6743"
                  fill="white"
                ></path>
                <path
                  d="M23.0253 17.3907C22.2068 18.6581 21.3826 20.037 20.5752 21.3155C21.0429 22.0524 21.4829 22.7949 21.9562 23.5263C22.3126 22.9568 22.6578 22.3986 23.0198 21.8179C24.6513 24.4419 26.2885 27.0658 27.9033 29.6953C28.7776 29.6842 29.7855 29.7065 30.6542 29.6842C28.1094 25.5808 25.5701 21.4941 23.0253 17.3963"
                  fill="white"
                ></path>
                <path
                  d="M14.9951 26.9597L17.1835 23.1187H18.0244L18.8652 24.8047L17.4453 26.0329L17.1835 26.4907L16.7102 27.1606L14.9951 26.9597Z"
                  fill="#D72027"
                ></path>
                <path
                  d="M23.0703 22.2756L25.5929 26.4907L24.752 27.3337L22.2295 23.9617L23.0703 22.2756Z"
                  fill="#D72027"
                ></path>
              </g>
              <defs>
                <clipPath id="clip0_781_8255">
                  <rect width="216.587" height="50" fill="white"></rect>
                </clipPath>
              </defs>
            </svg>